<svg xmlns="http://www.w3.org/2000/svg" width="800" height="500" viewBox="0 0 800 500">
  <defs>
    <linearGradient id="bg" x1="0%" y1="0%" x2="100%" y2="100%">
      <stop offset="0%" style="stop-color:#1A1A4E"/>
      <stop offset="100%" style="stop-color:#1565C0"/>
    </linearGradient>
    <filter id="shadow">
      <feDropShadow dx="0" dy="6" stdDeviation="10" flood-color="#000000" flood-opacity="0.2"/>
    </filter>
    <filter id="shadow2">
      <feDropShadow dx="0" dy="3" stdDeviation="5" flood-color="#000000" flood-opacity="0.15"/>
    </filter>
  </defs>

  <rect width="800" height="500" fill="url(#bg)"/>
  <circle cx="720" cy="80" r="150" fill="#ffffff" opacity="0.03"/>
  <circle cx="80" cy="430" r="120" fill="#ffffff" opacity="0.03"/>

  <!-- Main tall infographic -->
  <g transform="translate(68, 38)" filter="url(#shadow)">
    <rect width="195" height="400" rx="12" fill="#ffffff"/>
    <!-- Header -->
    <rect width="195" height="56" rx="12" fill="#1A1A4E"/>
    <rect y="44" width="195" height="12" fill="#1A1A4E"/>
    <text x="97" y="26" font-family="Georgia,serif" font-size="12" fill="#ffffff" text-anchor="middle" font-weight="bold">5 Steps to</text>
    <text x="97" y="42" font-family="Georgia,serif" font-size="12" fill="#93C5FD" text-anchor="middle" font-weight="bold">Digital Success</text>

    <!-- Step 1 -->
    <circle cx="36" cy="90" r="18" fill="#1565C0"/>
    <text x="36" y="95" font-family="Arial,sans-serif" font-size="14" fill="#ffffff" text-anchor="middle" font-weight="bold">1</text>
    <text x="65" y="86" font-family="Arial,sans-serif" font-size="9" fill="#1A1A4E" font-weight="bold">Define Your Niche</text>
    <rect x="65" y="92" width="115" height="3" rx="2" fill="#E5E7EB"/>
    <rect x="65" y="100" width="90" height="3" rx="2" fill="#E5E7EB"/>
    <rect x="36" y="110" width="2" height="24" fill="#E5E7EB"/>

    <!-- Step 2 -->
    <circle cx="36" cy="152" r="18" fill="#1565C0" opacity="0.8"/>
    <text x="36" y="157" font-family="Arial,sans-serif" font-size="14" fill="#ffffff" text-anchor="middle" font-weight="bold">2</text>
    <text x="65" y="148" font-family="Arial,sans-serif" font-size="9" fill="#1A1A4E" font-weight="bold">Build Your Brand</text>
    <rect x="65" y="154" width="115" height="3" rx="2" fill="#E5E7EB"/>
    <rect x="65" y="162" width="80" height="3" rx="2" fill="#E5E7EB"/>
    <rect x="36" y="172" width="2" height="24" fill="#E5E7EB"/>

    <!-- Step 3 -->
    <circle cx="36" cy="214" r="18" fill="#1565C0" opacity="0.7"/>
    <text x="36" y="219" font-family="Arial,sans-serif" font-size="14" fill="#ffffff" text-anchor="middle" font-weight="bold">3</text>
    <text x="65" y="210" font-family="Arial,sans-serif" font-size="9" fill="#1A1A4E" font-weight="bold">Create Content</text>
    <rect x="65" y="216" width="115" height="3" rx="2" fill="#E5E7EB"/>
    <rect x="65" y="224" width="100" height="3" rx="2" fill="#E5E7EB"/>
    <rect x="36" y="234" width="2" height="24" fill="#E5E7EB"/>

    <!-- Step 4 -->
    <circle cx="36" cy="276" r="18" fill="#1565C0" opacity="0.6"/>
    <text x="36" y="281" font-family="Arial,sans-serif" font-size="14" fill="#ffffff" text-anchor="middle" font-weight="bold">4</text>
    <text x="65" y="272" font-family="Arial,sans-serif" font-size="9" fill="#1A1A4E" font-weight="bold">Grow Audience</text>
    <rect x="65" y="278" width="115" height="3" rx="2" fill="#E5E7EB"/>
    <rect x="65" y="286" width="95" height="3" rx="2" fill="#E5E7EB"/>
    <rect x="36" y="296" width="2" height="24" fill="#E5E7EB"/>

    <!-- Step 5 -->
    <circle cx="36" cy="338" r="18" fill="#93C5FD"/>
    <text x="36" y="343" font-family="Arial,sans-serif" font-size="14" fill="#1A1A4E" text-anchor="middle" font-weight="bold">5</text>
    <text x="65" y="334" font-family="Arial,sans-serif" font-size="9" fill="#1A1A4E" font-weight="bold">Monetize &amp; Scale</text>
    <rect x="65" y="340" width="115" height="3" rx="2" fill="#E5E7EB"/>
    <rect x="65" y="348" width="75" height="3" rx="2" fill="#E5E7EB"/>

    <!-- Footer -->
    <rect x="12" y="370" width="171" height="20" rx="6" fill="#EFF6FF"/>
    <text x="97" y="384" font-family="Arial,sans-serif" font-size="8" fill="#1565C0" text-anchor="middle" font-weight="bold">PLR Digital Club ✦</text>
  </g>

  <!-- Stats infographic -->
  <g transform="translate(290, 38)" filter="url(#shadow)">
    <rect width="230" height="190" rx="12" fill="#ffffff"/>
    <rect width="230" height="48" rx="12" fill="#1A1A4E"/>
    <rect y="36" width="230" height="12" fill="#1A1A4E"/>
    <text x="115" y="28" font-family="Georgia,serif" font-size="11" fill="#ffffff" text-anchor="middle" font-weight="bold">Market Statistics 2026</text>

    <!-- Donut chart -->
    <circle cx="75" cy="128" r="48" fill="none" stroke="#EFF6FF" stroke-width="16"/>
    <circle cx="75" cy="128" r="48" fill="none" stroke="#1565C0" stroke-width="16"
      stroke-dasharray="181 120" stroke-dashoffset="30" stroke-linecap="round"/>
    <circle cx="75" cy="128" r="48" fill="none" stroke="#93C5FD" stroke-width="16"
      stroke-dasharray="60 241" stroke-dashoffset="-151" stroke-linecap="round"/>
    <text x="75" y="124" font-family="Arial,sans-serif" font-size="16" fill="#1A1A4E" text-anchor="middle" font-weight="bold">60%</text>
    <text x="75" y="138" font-family="Arial,sans-serif" font-size="8" fill="#6B7280" text-anchor="middle">Digital</text>

    <!-- Legend -->
    <rect x="140" y="76" width="10" height="10" rx="2" fill="#1565C0"/>
    <text x="156" y="85" font-family="Arial,sans-serif" font-size="8" fill="#374151">Digital Sales</text>
    <rect x="140" y="94" width="10" height="10" rx="2" fill="#93C5FD"/>
    <text x="156" y="103" font-family="Arial,sans-serif" font-size="8" fill="#374151">Social</text>
    <rect x="140" y="112" width="10" height="10" rx="2" fill="#EFF6FF" stroke="#E5E7EB" stroke-width="1"/>
    <text x="156" y="121" font-family="Arial,sans-serif" font-size="8" fill="#374151">Other</text>

    <rect x="140" y="136" width="80" height="32" rx="6" fill="#EFF6FF"/>
    <text x="180" y="152" font-family="Arial,sans-serif" font-size="18" fill="#1565C0" text-anchor="middle" font-weight="bold">3.2x</text>
    <text x="180" y="164" font-family="Arial,sans-serif" font-size="7" fill="#6B7280" text-anchor="middle">Avg. ROI</text>
  </g>

  <!-- Timeline infographic -->
  <g transform="translate(290, 248)" filter="url(#shadow)">
    <rect width="230" height="188" rx="12" fill="#1A1A4E"/>
    <rect width="230" height="44" rx="12" fill="#1565C0" opacity="0.5"/>
    <rect y="32" width="230" height="12" fill="#1565C0" opacity="0.5"/>
    <text x="115" y="26" font-family="Georgia,serif" font-size="11" fill="#ffffff" text-anchor="middle" font-weight="bold">Growth Timeline</text>

    <!-- Horizontal timeline -->
    <rect x="20" y="76" width="190" height="2" fill="#ffffff" opacity="0.15"/>
    <!-- Points -->
    <circle cx="20" cy="77" r="6" fill="#93C5FD"/>
    <circle cx="68" cy="77" r="6" fill="#93C5FD"/>
    <circle cx="116" cy="77" r="6" fill="#ffffff"/>
    <circle cx="164" cy="77" r="6" fill="#93C5FD"/>
    <circle cx="210" cy="77" r="6" fill="#1565C0" stroke="#93C5FD" stroke-width="2"/>

    <text x="20" y="96" font-family="Arial,sans-serif" font-size="7" fill="#93C5FD" text-anchor="middle">Jan</text>
    <text x="68" y="96" font-family="Arial,sans-serif" font-size="7" fill="#93C5FD" text-anchor="middle">Mar</text>
    <text x="116" y="96" font-family="Arial,sans-serif" font-size="7" fill="#ffffff" text-anchor="middle">Jun</text>
    <text x="164" y="96" font-family="Arial,sans-serif" font-size="7" fill="#93C5FD" text-anchor="middle">Sep</text>
    <text x="210" y="96" font-family="Arial,sans-serif" font-size="7" fill="#93C5FD" text-anchor="middle">Dec</text>

    <!-- Bar chart -->
    <rect x="20" y="170" width="28" height="30" rx="3" fill="#1565C0" opacity="0.4" transform="rotate(180,34,155)"/>
    <rect x="58" y="170" width="28" height="50" rx="3" fill="#1565C0" opacity="0.5" transform="rotate(180,72,145)"/>
    <rect x="96" y="170" width="28" height="40" rx="3" fill="#93C5FD" opacity="0.5" transform="rotate(180,110,150)"/>
    <rect x="134" y="170" width="28" height="65" rx="3" fill="#1565C0" opacity="0.6" transform="rotate(180,148,137)"/>
    <rect x="172" y="170" width="28" height="80" rx="3" fill="#ffffff" opacity="0.6" transform="rotate(180,186,130)"/>
    <rect x="20" y="170" width="190" height="1" fill="#ffffff" opacity="0.15"/>
    <text x="115" y="185" font-family="Arial,sans-serif" font-size="8" fill="#93C5FD" text-anchor="middle">Revenue Growth per Quarter</text>
  </g>

  <!-- Right comparison infographic -->
  <g transform="translate(548, 38)" filter="url(#shadow)">
    <rect width="188" height="395" rx="12" fill="#ffffff"/>
    <rect width="188" height="52" rx="12" fill="#1565C0"/>
    <rect y="40" width="188" height="12" fill="#1565C0"/>
    <text x="94" y="24" font-family="Georgia,serif" font-size="11" fill="#ffffff" text-anchor="middle" font-weight="bold">Key Metrics</text>
    <text x="94" y="40" font-family="Arial,sans-serif" font-size="8" fill="#EFF6FF" text-anchor="middle">Infographic Dashboard</text>

    <!-- Metric 1 -->
    <text x="94" y="82" font-family="Arial,sans-serif" font-size="28" fill="#1A1A4E" text-anchor="middle" font-weight="bold">87%</text>
    <text x="94" y="96" font-family="Arial,sans-serif" font-size="8" fill="#6B7280" text-anchor="middle">Customer Satisfaction</text>
    <rect x="20" y="104" width="148" height="6" rx="3" fill="#EFF6FF"/>
    <rect x="20" y="104" width="129" height="6" rx="3" fill="#1565C0"/>
    <rect x="20" y="118" width="148" height="1" fill="#E5E7EB"/>

    <!-- Metric 2 -->
    <text x="94" y="148" font-family="Arial,sans-serif" font-size="28" fill="#1A1A4E" text-anchor="middle" font-weight="bold">2.4M</text>
    <text x="94" y="162" font-family="Arial,sans-serif" font-size="8" fill="#6B7280" text-anchor="middle">Monthly Impressions</text>
    <rect x="20" y="170" width="148" height="6" rx="3" fill="#EFF6FF"/>
    <rect x="20" y="170" width="100" height="6" rx="3" fill="#93C5FD"/>
    <rect x="20" y="184" width="148" height="1" fill="#E5E7EB"/>

    <!-- Metric 3 -->
    <text x="94" y="214" font-family="Arial,sans-serif" font-size="28" fill="#1A1A4E" text-anchor="middle" font-weight="bold">$48K</text>
    <text x="94" y="228" font-family="Arial,sans-serif" font-size="8" fill="#6B7280" text-anchor="middle">Avg Monthly Revenue</text>
    <rect x="20" y="236" width="148" height="6" rx="3" fill="#EFF6FF"/>
    <rect x="20" y="236" width="140" height="6" rx="3" fill="#1A1A4E"/>
    <rect x="20" y="250" width="148" height="1" fill="#E5E7EB"/>

    <!-- Icon grid -->
    <text x="94" y="278" font-family="Arial,sans-serif" font-size="10" fill="#1A1A4E" text-anchor="middle" font-weight="bold">Template Types</text>
    <rect x="16" y="288" width="72" height="44" rx="6" fill="#EFF6FF"/>
    <rect x="100" y="288" width="72" height="44" rx="6" fill="#EFF6FF"/>
    <text x="52" y="308" font-family="Arial,sans-serif" font-size="18" text-anchor="middle">📊</text>
    <text x="52" y="322" font-family="Arial,sans-serif" font-size="7" fill="#1A1A4E" text-anchor="middle">Statistics</text>
    <text x="136" y="308" font-family="Arial,sans-serif" font-size="18" text-anchor="middle">🗺️</text>
    <text x="136" y="322" font-family="Arial,sans-serif" font-size="7" fill="#1A1A4E" text-anchor="middle">Maps</text>
    <rect x="16" y="340" width="72" height="44" rx="6" fill="#EFF6FF"/>
    <rect x="100" y="340" width="72" height="44" rx="6" fill="#EFF6FF"/>
    <text x="52" y="360" font-family="Arial,sans-serif" font-size="18" text-anchor="middle">📈</text>
    <text x="52" y="374" font-family="Arial,sans-serif" font-size="7" fill="#1A1A4E" text-anchor="middle">Charts</text>
    <text x="136" y="360" font-family="Arial,sans-serif" font-size="18" text-anchor="middle">🔄</text>
    <text x="136" y="374" font-family="Arial,sans-serif" font-size="7" fill="#1A1A4E" text-anchor="middle">Process</text>
  </g>
</svg>
