<svg xmlns="http://www.w3.org/2000/svg" width="800" height="500" viewBox="0 0 800 500">
  <defs>
    <linearGradient id="bg" x1="0%" y1="0%" x2="100%" y2="100%">
      <stop offset="0%" style="stop-color:#1A1A4E"/>
      <stop offset="100%" style="stop-color:#1565C0"/>
    </linearGradient>
    <linearGradient id="gold" x1="0%" y1="0%" x2="100%" y2="0%">
      <stop offset="0%" style="stop-color:#D97706"/>
      <stop offset="100%" style="stop-color:#F59E0B"/>
    </linearGradient>
    <filter id="shadow">
      <feDropShadow dx="0" dy="6" stdDeviation="10" flood-color="#000000" flood-opacity="0.2"/>
    </filter>
    <filter id="shadow2">
      <feDropShadow dx="0" dy="3" stdDeviation="5" flood-color="#000000" flood-opacity="0.15"/>
    </filter>
  </defs>

  <rect width="800" height="500" fill="url(#bg)"/>
  <circle cx="720" cy="80" r="150" fill="#ffffff" opacity="0.03"/>
  <circle cx="80" cy="430" r="120" fill="#ffffff" opacity="0.03"/>

  <!-- Hero panel -->
  <g transform="translate(55, 42)" filter="url(#shadow)">
    <rect width="470" height="130" rx="12" fill="#0D1B3E"/>
    <rect width="470" height="130" rx="12" fill="none" stroke="#F59E0B" stroke-width="1" opacity="0.5"/>
    <!-- Badge -->
    <rect x="16" y="18" width="110" height="22" rx="11" fill="url(#gold)"/>
    <text x="71" y="33" font-family="Arial,sans-serif" font-size="9" fill="#ffffff" text-anchor="middle" font-weight="bold">💬 QUOTES BUDDY</text>
    <!-- Title -->
    <text x="16" y="70" font-family="Georgia,serif" font-size="22" fill="#ffffff" font-weight="bold">QuotesBuddy</text>
    <text x="16" y="92" font-family="Georgia,serif" font-size="18" fill="#FCD34D" font-weight="bold">Premium Quote Design Bundle</text>
    <rect x="16" y="104" width="220" height="2" fill="#F59E0B"/>
    <text x="16" y="121" font-family="Arial,sans-serif" font-size="8" fill="#6B7280">Drive traffic · More shares · Viral quote graphics</text>
    <!-- Icon -->
    <circle cx="415" cy="65" r="50" fill="#F59E0B" opacity="0.08"/>
    <circle cx="415" cy="65" r="30" fill="#F59E0B" opacity="0.1"/>
    <text x="415" y="77" font-family="Arial,sans-serif" font-size="32" text-anchor="middle">💬</text>
  </g>

  <!-- Quote cards grid -->
  <g transform="translate(55, 188)" filter="url(#shadow2)">
    <rect width="470" height="242" rx="12" fill="#0D1B3E"/>
    <rect width="470" height="38" rx="12" fill="#0A0F2E"/>
    <rect y="26" width="470" height="12" fill="#0A0F2E"/>
    <text x="235" y="23" font-family="Arial,sans-serif" font-size="10" fill="#ffffff" text-anchor="middle" font-weight="bold">Sample Quote Designs</text>

    <!-- Quote card 1 - motivational -->
    <rect x="14" y="48" width="136" height="84" rx="8" fill="#1A1A4E"/>
    <rect x="14" y="48" width="136" height="84" rx="8" fill="none" stroke="#F59E0B" stroke-width="1.5"/>
    <text x="82" y="70" font-family="Georgia,serif" font-size="22" fill="#F59E0B" text-anchor="middle">"</text>
    <text x="82" y="90" font-family="Georgia,serif" font-size="9" fill="#ffffff" text-anchor="middle" font-style="italic">Dream big,</text>
    <text x="82" y="102" font-family="Georgia,serif" font-size="9" fill="#ffffff" text-anchor="middle" font-style="italic">work hard.</text>
    <text x="82" y="120" font-family="Arial,sans-serif" font-size="7" fill="#F59E0B" text-anchor="middle">— Motivational</text>

    <!-- Quote card 2 - business niche -->
    <rect x="160" y="48" width="136" height="84" rx="8" fill="#1A2744"/>
    <rect x="160" y="48" width="136" height="84" rx="8" fill="none" stroke="#3B82F6" stroke-width="1.5"/>
    <text x="228" y="70" font-family="Georgia,serif" font-size="22" fill="#60A5FA" text-anchor="middle">"</text>
    <text x="228" y="90" font-family="Georgia,serif" font-size="9" fill="#ffffff" text-anchor="middle" font-style="italic">Success is a</text>
    <text x="228" y="102" font-family="Georgia,serif" font-size="9" fill="#ffffff" text-anchor="middle" font-style="italic">daily decision.</text>
    <text x="228" y="120" font-family="Arial,sans-serif" font-size="7" fill="#60A5FA" text-anchor="middle">— Business</text>

    <!-- Quote card 3 - lifestyle -->
    <rect x="306" y="48" width="150" height="84" rx="8" fill="#2D1B69"/>
    <rect x="306" y="48" width="150" height="84" rx="8" fill="none" stroke="#A855F7" stroke-width="1.5"/>
    <text x="381" y="70" font-family="Georgia,serif" font-size="22" fill="#C4B5FD" text-anchor="middle">"</text>
    <text x="381" y="87" font-family="Georgia,serif" font-size="9" fill="#ffffff" text-anchor="middle" font-style="italic">Your vibe attracts</text>
    <text x="381" y="99" font-family="Georgia,serif" font-size="9" fill="#ffffff" text-anchor="middle" font-style="italic">your tribe.</text>
    <text x="381" y="120" font-family="Arial,sans-serif" font-size="7" fill="#C4B5FD" text-anchor="middle">— Lifestyle</text>

    <!-- Row 2 quote cards -->
    <rect x="14" y="146" width="100" height="82" rx="8" fill="#1C3A2A"/>
    <rect x="14" y="146" width="100" height="82" rx="8" fill="none" stroke="#10B981" stroke-width="1"/>
    <text x="64" y="178" font-family="Arial,sans-serif" font-size="16" text-anchor="middle">💪</text>
    <text x="64" y="196" font-family="Arial,sans-serif" font-size="7.5" fill="#6EE7B7" text-anchor="middle" font-weight="bold">Fitness Niche</text>
    <text x="64" y="208" font-family="Arial,sans-serif" font-size="6" fill="#9CA3AF" text-anchor="middle">Quote designs</text>
    <text x="64" y="220" font-family="Arial,sans-serif" font-size="6" fill="#10B981" text-anchor="middle">Commercial use</text>

    <rect x="124" y="146" width="100" height="82" rx="8" fill="#1E1A4E"/>
    <rect x="124" y="146" width="100" height="82" rx="8" fill="none" stroke="#7C3AED" stroke-width="1"/>
    <text x="174" y="178" font-family="Arial,sans-serif" font-size="16" text-anchor="middle">🧘</text>
    <text x="174" y="196" font-family="Arial,sans-serif" font-size="7.5" fill="#C4B5FD" text-anchor="middle">Wellness Niche</text>
    <text x="174" y="208" font-family="Arial,sans-serif" font-size="6" fill="#9CA3AF" text-anchor="middle">Mindfulness quotes</text>
    <text x="174" y="220" font-family="Arial,sans-serif" font-size="6" fill="#7C3AED" text-anchor="middle">PLR included</text>

    <rect x="234" y="146" width="100" height="82" rx="8" fill="#1C1917"/>
    <rect x="234" y="146" width="100" height="82" rx="8" fill="none" stroke="#D97706" stroke-width="1"/>
    <text x="284" y="178" font-family="Arial,sans-serif" font-size="16" text-anchor="middle">🎬</text>
    <text x="284" y="196" font-family="Arial,sans-serif" font-size="7.5" fill="#FCD34D" text-anchor="middle">DFY Videos</text>
    <text x="284" y="208" font-family="Arial,sans-serif" font-size="6" fill="#9CA3AF" text-anchor="middle">Marketing videos</text>
    <text x="284" y="220" font-family="Arial,sans-serif" font-size="6" fill="#D97706" text-anchor="middle">Ready to use</text>

    <rect x="344" y="146" width="112" height="82" rx="8" fill="#0D1B3E"/>
    <rect x="344" y="146" width="112" height="82" rx="8" fill="none" stroke="#F59E0B" stroke-width="1.5"/>
    <text x="400" y="172" font-family="Arial,sans-serif" font-size="14" text-anchor="middle">📈 +100</text>
    <text x="400" y="188" font-family="Arial,sans-serif" font-size="7.5" fill="#FCD34D" text-anchor="middle" font-weight="bold">Business Niches</text>
    <text x="400" y="200" font-family="Arial,sans-serif" font-size="6" fill="#9CA3AF" text-anchor="middle">Finance · Health · Love</text>
    <text x="400" y="212" font-family="Arial,sans-serif" font-size="6" fill="#9CA3AF" text-anchor="middle">Success &amp; more...</text>
    <text x="400" y="220" font-family="Arial,sans-serif" font-size="5.5" fill="#F59E0B" text-anchor="middle">Commercial rights</text>
  </g>

  <!-- Right panels -->
  <g transform="translate(548, 42)" filter="url(#shadow2)">
    <rect width="210" height="178" rx="12" fill="#ffffff"/>
    <rect width="210" height="44" rx="12" fill="#0D1B3E"/>
    <rect y="32" width="210" height="12" fill="#0D1B3E"/>
    <text x="105" y="26" font-family="Georgia,serif" font-size="11" fill="#ffffff" text-anchor="middle" font-weight="bold">Quote Categories</text>

    <rect x="14" y="56" width="86" height="44" rx="6" fill="#FFFBEB"/>
    <text x="57" y="74" font-family="Arial,sans-serif" font-size="16" text-anchor="middle">💪</text>
    <text x="57" y="90" font-family="Arial,sans-serif" font-size="7" fill="#1A1A4E" text-anchor="middle">Motivational</text>

    <rect x="110" y="56" width="86" height="44" rx="6" fill="#FFFBEB"/>
    <text x="153" y="74" font-family="Arial,sans-serif" font-size="16" text-anchor="middle">💼</text>
    <text x="153" y="90" font-family="Arial,sans-serif" font-size="7" fill="#1A1A4E" text-anchor="middle">Business</text>

    <rect x="14" y="108" width="86" height="44" rx="6" fill="#FFFBEB"/>
    <text x="57" y="126" font-family="Arial,sans-serif" font-size="16" text-anchor="middle">🧘</text>
    <text x="57" y="141" font-family="Arial,sans-serif" font-size="7" fill="#1A1A4E" text-anchor="middle">Wellness</text>

    <rect x="110" y="108" width="86" height="44" rx="6" fill="#FFFBEB"/>
    <text x="153" y="126" font-family="Arial,sans-serif" font-size="16" text-anchor="middle">❤️</text>
    <text x="153" y="141" font-family="Arial,sans-serif" font-size="7" fill="#1A1A4E" text-anchor="middle">Lifestyle</text>
  </g>

  <g transform="translate(548, 234)" filter="url(#shadow2)">
    <rect width="210" height="196" rx="12" fill="#0D1B3E"/>
    <rect width="210" height="44" rx="12" fill="#D97706" opacity="0.3"/>
    <rect y="32" width="210" height="12" fill="#D97706" opacity="0.3"/>
    <text x="105" y="26" font-family="Georgia,serif" font-size="11" fill="#ffffff" text-anchor="middle" font-weight="bold">What's Included</text>

    <text x="22" y="64" font-family="Arial,sans-serif" font-size="10" fill="#FCD34D">✓</text>
    <text x="40" y="64" font-family="Arial,sans-serif" font-size="9" fill="#ffffff">Premium quote graphics</text>
    <text x="22" y="84" font-family="Arial,sans-serif" font-size="10" fill="#FCD34D">✓</text>
    <text x="40" y="84" font-family="Arial,sans-serif" font-size="9" fill="#ffffff">DFY marketing videos</text>
    <text x="22" y="104" font-family="Arial,sans-serif" font-size="10" fill="#FCD34D">✓</text>
    <text x="40" y="104" font-family="Arial,sans-serif" font-size="9" fill="#ffffff">100+ business niches</text>
    <text x="22" y="124" font-family="Arial,sans-serif" font-size="10" fill="#FCD34D">✓</text>
    <text x="40" y="124" font-family="Arial,sans-serif" font-size="9" fill="#ffffff">Editable source files</text>
    <text x="22" y="144" font-family="Arial,sans-serif" font-size="10" fill="#FCD34D">✓</text>
    <text x="40" y="144" font-family="Arial,sans-serif" font-size="9" fill="#ffffff">Commercial PLR rights</text>

    <rect x="16" y="156" width="178" height="1" fill="#ffffff" opacity="0.1"/>
    <text x="105" y="178" font-family="Arial,sans-serif" font-size="8" fill="#FCD34D" text-anchor="middle">Sell · Rebrand · Keep 100%</text>
  </g>
</svg>
